<?xml version="1.0" encoding="UTF-8" standalone="no"?>
<!-- Generator: Adobe Illustrator 25.2.3, SVG Export Plug-In . SVG Version: 6.00 Build 0)  -->

<svg
   version="1.1"
   id="Shape_logo"
   x="0px"
   y="0px"
   viewBox="0 0 159.9 34.5"
   xml:space="preserve"
   sodipodi:docname="logo (copia).svg"
   style="enable-background:new 0 0 159.9 34.5;"
   inkscape:version="1.2.2 (1:1.2.2+202212051551+b0a8486541)"
   xmlns:inkscape="http://www.inkscape.org/namespaces/inkscape"
   xmlns:sodipodi="http://sodipodi.sourceforge.net/DTD/sodipodi-0.dtd"
   xmlns:xlink="http://www.w3.org/1999/xlink"
   xmlns="http://www.w3.org/2000/svg"
   xmlns:svg="http://www.w3.org/2000/svg"><defs
   id="defs11"><linearGradient
     id="linearGradient3415"
     inkscape:swatch="solid"><stop
       style="stop-color:#2163e8;stop-opacity:1;"
       offset="0"
       id="stop3413" /></linearGradient><linearGradient
     id="linearGradient3409"
     inkscape:swatch="solid"><stop
       style="stop-color:#2163e8;stop-opacity:1;"
       offset="0"
       id="stop3407" /></linearGradient><linearGradient
     id="linearGradient975"
     inkscape:swatch="solid"><stop
       style="stop-color:#2163e8;stop-opacity:1;"
       offset="0"
       id="stop973" /></linearGradient><linearGradient
     id="linearGradient969"
     inkscape:swatch="solid"><stop
       style="stop-color:#2163e8;stop-opacity:1;"
       offset="0"
       id="stop967" /></linearGradient><linearGradient
     id="linearGradient963"
     inkscape:swatch="solid"><stop
       style="stop-color:#2163e8;stop-opacity:1;"
       offset="0"
       id="stop961" /></linearGradient><linearGradient
     inkscape:collect="always"
     xlink:href="#linearGradient3415"
     id="linearGradient3417"
     x1="104.54335"
     y1="26.21397"
     x2="173.51848"
     y2="26.21397"
     gradientUnits="userSpaceOnUse" /></defs><sodipodi:namedview
   id="namedview9"
   pagecolor="#ffffff"
   bordercolor="#000000"
   borderopacity="0.25"
   inkscape:showpageshadow="2"
   inkscape:pageopacity="0.0"
   inkscape:pagecheckerboard="0"
   inkscape:deskcolor="#d1d1d1"
   showgrid="false"
   inkscape:zoom="2.706375"
   inkscape:cx="40.644774"
   inkscape:cy="81.104799"
   inkscape:window-width="1366"
   inkscape:window-height="654"
   inkscape:window-x="0"
   inkscape:window-y="27"
   inkscape:window-maximized="1"
   inkscape:current-layer="text355" />
<style
   type="text/css"
   id="style2">
	.st0{fill-rule:evenodd;clip-rule:evenodd;fill:#2163E8;}
	.st1{fill:#2163E8;}
	.st2{font-family:'ArialNarrow-Bold';}
	.st3{font-size:29.6233px;}
</style>
<path
   class="st0"
   d="M1,1.3v31.9h24.8v-2.3H3.5V3.6h29.2v27.3h-2.1h-1.2V12.2h-2.5l-2.8,4.3l-2.8-4.3h-2.5v10.1h2.3v-6.5l3,4.3H24  l3-4.3v15.2v2.3h2.3h1.2h4.5V1.3H1L1,1.3z M8.3,13.6c-0.5,0.5-0.9,1-1.2,1.7c-0.3,0.6-0.4,1.3-0.4,2v0c0,0.7,0.1,1.4,0.4,2  c0.3,0.6,0.7,1.2,1.2,1.6c0.5,0.5,1.1,0.8,1.8,1.1c0.7,0.3,1.4,0.4,2.2,0.4c0.5,0,1,0,1.4-0.1c0.4-0.1,0.8-0.2,1.2-0.4  c0.4-0.2,0.7-0.3,1-0.6c0.3-0.2,0.6-0.5,0.9-0.7l-1.5-1.4c-0.4,0.4-0.8,0.7-1.3,0.9c-0.4,0.2-0.9,0.3-1.6,0.3  c-0.5,0-0.9-0.1-1.3-0.3c-0.4-0.2-0.7-0.4-1-0.7c-0.3-0.3-0.5-0.6-0.6-1c-0.2-0.4-0.2-0.8-0.2-1.2v0c0-0.4,0.1-0.8,0.2-1.2  c0.2-0.4,0.4-0.7,0.6-1c0.3-0.3,0.6-0.5,1-0.7c0.4-0.2,0.8-0.2,1.3-0.2c0.5,0,1,0.1,1.5,0.3c0.4,0.2,0.9,0.5,1.3,0.8l1.5-1.6  c-0.2-0.2-0.5-0.4-0.8-0.6c-0.3-0.2-0.6-0.4-0.9-0.5c-0.3-0.1-0.7-0.2-1.1-0.3c-0.4-0.1-0.9-0.1-1.4-0.1c-0.8,0-1.6,0.1-2.3,0.4  C9.4,12.7,8.8,13.1,8.3,13.6L8.3,13.6z"
   id="path402"
   style="fill:#ffffff" />

<text
   xml:space="preserve"
   style="font-style:normal;font-variant:normal;font-weight:bold;font-stretch:normal;font-size:19.3081px;font-family:sans-serif;-inkscape-font-specification:'sans-serif, Bold';font-variant-ligatures:normal;font-variant-caps:normal;font-variant-numeric:normal;font-variant-east-asian:normal;fill:#2163e8;fill-opacity:1;stroke:#000000;stroke-width:1.333"
   x="54.86731"
   y="15.542357"
   id="text1013"><tspan
     sodipodi:role="line"
     id="tspan1011" /></text><g
   aria-label="CREDIMUNDO"
   transform="scale(0.79808612,1.2529976)"
   id="text1069"
   style="font-weight:bold;font-size:19.426px;-inkscape-font-specification:'sans-serif, Bold';fill:#2163e8;stroke-width:1.341"><path
     d="m 60.503145,18.735471 q -1.005447,0.521694 -2.096262,0.787284 -1.090816,0.26559 -2.276485,0.26559 -3.538036,0 -5.605843,-1.972953 -2.067807,-1.982439 -2.067807,-5.368709 0,-3.3957563 2.067807,-5.3687098 2.067807,-1.9824386 5.605843,-1.9824386 1.185669,0 2.276485,0.2655899 1.090815,0.2655898 2.096262,0.7872842 v 2.930974 q -1.014932,-0.692431 -2.001409,-1.0149329 -0.986477,-0.322502 -2.077292,-0.322502 -1.953982,0 -3.073254,1.2520669 -1.119272,1.2520663 -1.119272,3.4526683 0,2.191116 1.119272,3.443182 1.119272,1.252067 3.073254,1.252067 1.090815,0 2.077292,-0.322502 0.986477,-0.322502 2.001409,-1.014933 z"
     id="path6394"
     style="fill:#ffffff" /><path
     d="m 68.71746,11.630942 q 1.147728,0 1.640966,-0.42684 0.502724,-0.426841 0.502724,-1.4038333 0,-0.967505 -0.502724,-1.384861 Q 69.865188,7.9980523 68.71746,7.9980523 h -1.536627 v 3.6328897 z m -1.536627,2.523104 v 5.359224 h -3.65186 V 5.3516391 h 5.577387 q 2.798178,0 4.097672,0.9390499 1.308978,0.9390498 1.308978,2.9689147 0,1.4038323 -0.682945,2.3049413 -0.67346,0.901108 -2.039351,1.327949 0.749343,0.170736 1.337435,0.777799 0.597577,0.597577 1.204639,1.821188 l 1.982439,4.021789 h -3.888994 l -1.726334,-3.519066 q -0.521695,-1.062359 -1.06236,-1.451259 -0.531179,-0.388899 -1.422802,-0.388899 z"
     id="path6396"
     style="fill-opacity:1;fill:#ffffff" /><path
     d="m 78.487373,5.3516391 h 9.85528 v 2.7602374 h -6.20342 v 2.6369285 h 5.833491 v 2.760237 h -5.833491 v 3.24399 h 6.412098 V 19.51327 H 78.487373 Z"
     id="path6398"
     style="fill:#ffffff" /><path
     d="m 95.409239,8.1118765 v 8.6411555 h 1.308979 q 2.238543,0 3.414722,-1.109786 1.18567,-1.109786 1.18567,-3.225019 0,-2.105749 -1.17618,-3.2060493 -1.176184,-1.1003012 -3.424212,-1.1003012 z m -3.65186,-2.7602374 h 3.851053 q 3.225019,0 4.799588,0.4647823 1.58405,0.4552969 2.71281,1.5555977 0.99596,0.9580205 1.47972,2.2100866 0.48375,1.2520673 0.48375,2.8361213 0,1.603024 -0.48375,2.864576 -0.48376,1.252066 -1.47972,2.210087 -1.13824,1.100301 -2.73178,1.565083 -1.59354,0.455297 -4.780618,0.455297 h -3.851053 z"
     id="path6400"
     style="fill:#ffffff" /><path
     d="m 107.88248,5.3516391 h 3.65186 V 19.51327 h -3.65186 z"
     id="path6402"
     style="fill:#ffffff" /><path
     d="m 115.11032,5.3516391 h 4.64782 l 3.22502,7.5787969 3.24399,-7.5787969 h 4.63834 V 19.51327 h -3.45267 V 9.1552657 l -3.26296,7.6357083 h -2.31443 L 118.57247,9.1552657 V 19.51327 h -3.46215 z"
     id="path6404"
     style="fill:#ffffff" /><path
     d="m 134.44146,5.3516391 h 3.65186 v 8.4893899 q 0,1.75479 0.56913,2.513619 0.5786,0.749342 1.8781,0.749342 1.30897,0 1.8781,-0.749342 0.5786,-0.758829 0.5786,-2.513619 V 5.3516391 h 3.65186 v 8.4893899 q 0,3.006857 -1.50817,4.477086 -1.50817,1.47023 -4.60039,1.47023 -3.08274,0 -4.59091,-1.47023 -1.50818,-1.470229 -1.50818,-4.477086 z"
     id="path6406"
     style="fill:#ffffff" /><path
     d="m 150.2156,5.3516391 h 4.07871 l 5.15054,9.7130009 V 5.3516391 H 162.907 V 19.51327 h -4.0787 L 153.67776,9.8002687 V 19.51327 h -3.46216 z"
     id="path6408"
     style="fill:#ffffff" /><path
     d="m 170.12535,8.1118765 v 8.6411555 h 1.30898 q 2.23854,0 3.41473,-1.109786 1.18567,-1.109786 1.18567,-3.225019 0,-2.105749 -1.17619,-3.2060493 -1.17618,-1.1003012 -3.42421,-1.1003012 z m -3.65186,-2.7602374 h 3.85106 q 3.22502,0 4.79958,0.4647823 1.58406,0.4552969 2.71281,1.5555977 0.99597,0.9580205 1.47972,2.2100866 0.48375,1.2520673 0.48375,2.8361213 0,1.603024 -0.48375,2.864576 -0.48375,1.252066 -1.47972,2.210087 -1.13824,1.100301 -2.73178,1.565083 -1.59354,0.455297 -4.78061,0.455297 h -3.85106 z"
     id="path6410"
     style="fill:#ffffff" /><path
     d="m 189.06759,7.7419478 q -1.66942,0 -2.5895,1.2330959 -0.92008,1.2330963 -0.92008,3.4716393 0,2.229057 0.92008,3.462153 0.92008,1.233096 2.5895,1.233096 1.67891,0 2.59899,-1.233096 0.92008,-1.233096 0.92008,-3.462153 0,-2.238543 -0.92008,-3.4716393 -0.92008,-1.2330959 -2.59899,-1.2330959 z m 0,-2.6464132 q 3.41473,0 5.34974,1.9539825 1.93501,1.9539826 1.93501,5.3971659 0,3.433697 -1.93501,5.387679 -1.93501,1.953983 -5.34974,1.953983 -3.40524,0 -5.34973,-1.953983 -1.93502,-1.953982 -1.93502,-5.387679 0,-3.4431833 1.93502,-5.3971659 1.94449,-1.9539825 5.34973,-1.9539825 z"
     id="path6412"
     style="fill-opacity:1;fill:#ffffff" /><g
     aria-label="es credimundo..!"
     transform="matrix(1.1949068,0,0,1.0728465,-10.074532,-4.1459764)"
     id="text355"
     style="font-style:italic;font-weight:normal;font-size:7.87915px;-inkscape-font-specification:'sans-serif, Italic';fill:url(#linearGradient3417);fill-opacity:1;stroke-width:0.547229"><g
       aria-label="es credimundo..!"
       transform="scale(1.0486153,0.95363855)"
       id="text3042"
       style="font-style:normal;font-size:8px;-inkscape-font-specification:'sans-serif, Normal';fill:#ffffff;stroke-width:1.341"><path
         d="m 103.75126,28.103605 v 0.351563 h -3.30469 q 0.0469,0.742187 0.44531,1.132812 0.40235,0.386719 1.11719,0.386719 0.41406,0 0.80078,-0.101562 0.39063,-0.101563 0.77344,-0.304688 v 0.679688 q -0.38672,0.164062 -0.79297,0.25 -0.40625,0.08594 -0.82422,0.08594 -1.04687,0 -1.66015,-0.609375 -0.609379,-0.609375 -0.609379,-1.648437 0,-1.074219 0.578129,-1.703125 0.58203,-0.632813 1.5664,-0.632813 0.88282,0 1.39453,0.570313 0.51563,0.566406 0.51563,1.542968 z m -0.71875,-0.210937 q -0.008,-0.589844 -0.33203,-0.941406 -0.32031,-0.351563 -0.85156,-0.351563 -0.60157,0 -0.96485,0.339844 -0.35937,0.339844 -0.41406,0.957031 z"
         id="path3427"
         style="fill:#ffffff" /><path
         d="m 107.72001,26.224699 v 0.679688 q -0.30469,-0.15625 -0.63281,-0.234375 -0.32813,-0.07813 -0.67969,-0.07813 -0.53516,0 -0.80469,0.164062 -0.26562,0.164063 -0.26562,0.492188 0,0.25 0.1914,0.394531 0.19141,0.140625 0.76953,0.269531 l 0.2461,0.05469 q 0.76562,0.164062 1.08594,0.464843 0.32421,0.296875 0.32421,0.832032 0,0.609375 -0.48437,0.964843 -0.48047,0.355469 -1.32422,0.355469 -0.35156,0 -0.73437,-0.07031 -0.37891,-0.06641 -0.80079,-0.203125 v -0.742188 q 0.39844,0.207031 0.78516,0.3125 0.38672,0.101563 0.76563,0.101563 0.50781,0 0.78125,-0.171875 0.27343,-0.175782 0.27343,-0.492188 0,-0.292969 -0.19922,-0.449219 -0.19531,-0.15625 -0.86328,-0.300781 l -0.25,-0.05859 q -0.66797,-0.140625 -0.96484,-0.429687 -0.29688,-0.292969 -0.29688,-0.800781 0,-0.617188 0.4375,-0.953125 0.4375,-0.335938 1.24219,-0.335938 0.39844,0 0.75,0.05859 0.35156,0.05859 0.64844,0.175781 z"
         id="path3429"
         style="fill:#ffffff" /><path
         d="m 114.79032,26.263762 v 0.671875 q -0.30469,-0.167969 -0.61328,-0.25 -0.30469,-0.08594 -0.61719,-0.08594 -0.69922,0 -1.08593,0.445313 -0.38672,0.441406 -0.38672,1.242187 0,0.800781 0.38672,1.246094 0.38671,0.441406 1.08593,0.441406 0.3125,0 0.61719,-0.08203 0.30859,-0.08594 0.61328,-0.253906 v 0.664062 q -0.30078,0.140625 -0.625,0.210938 -0.32031,0.07031 -0.68359,0.07031 -0.98828,0 -1.57031,-0.621094 -0.58204,-0.621093 -0.58204,-1.675781 0,-1.070312 0.58594,-1.683594 0.58985,-0.613281 1.61328,-0.613281 0.33203,0 0.64844,0.07031 0.31641,0.06641 0.61328,0.203125 z"
         id="path3431"
         style="fill:#ffffff" /><path
         d="m 118.57548,26.767668 q -0.1211,-0.07031 -0.26563,-0.101563 -0.14062,-0.03516 -0.3125,-0.03516 -0.60937,0 -0.9375,0.398438 -0.32422,0.394531 -0.32422,1.136718 v 2.304688 h -0.72265 v -4.375 h 0.72265 v 0.679687 q 0.22657,-0.398437 0.58985,-0.589843 0.36328,-0.195313 0.88281,-0.195313 0.0742,0 0.16406,0.01172 0.0898,0.0078 0.19922,0.02734 z"
         id="path3433"
         style="fill:#ffffff" /><path
         d="m 122.89579,28.103605 v 0.351563 h -3.30469 q 0.0469,0.742187 0.44532,1.132812 0.40234,0.386719 1.11718,0.386719 0.41407,0 0.80078,-0.101562 0.39063,-0.101563 0.77344,-0.304688 v 0.679688 q -0.38672,0.164062 -0.79297,0.25 -0.40625,0.08594 -0.82422,0.08594 -1.04687,0 -1.66015,-0.609375 -0.60938,-0.609375 -0.60938,-1.648437 0,-1.074219 0.57813,-1.703125 0.58203,-0.632813 1.5664,-0.632813 0.88282,0 1.39454,0.570313 0.51562,0.566406 0.51562,1.542968 z m -0.71875,-0.210937 q -0.008,-0.589844 -0.33203,-0.941406 -0.32031,-0.351563 -0.85156,-0.351563 -0.60157,0 -0.96485,0.339844 -0.35937,0.339844 -0.41406,0.957031 z"
         id="path3435"
         style="fill:#ffffff" /><path
         d="m 126.95438,26.759855 v -2.367187 h 0.71875 v 6.078125 h -0.71875 v -0.65625 q -0.22656,0.390625 -0.57421,0.582031 -0.34375,0.1875 -0.82813,0.1875 -0.79297,0 -1.29297,-0.632812 -0.49609,-0.632813 -0.49609,-1.664063 0,-1.03125 0.49609,-1.664062 0.5,-0.632813 1.29297,-0.632813 0.48438,0 0.82813,0.191406 0.34765,0.1875 0.57421,0.578125 z m -2.44921,1.527344 q 0,0.792969 0.32421,1.246094 0.32813,0.449219 0.89844,0.449219 0.57031,0 0.89844,-0.449219 0.32812,-0.453125 0.32812,-1.246094 0,-0.792969 -0.32812,-1.242187 -0.32813,-0.453125 -0.89844,-0.453125 -0.57031,0 -0.89844,0.453125 -0.32421,0.449218 -0.32421,1.242187 z"
         id="path3437"
         style="fill:#ffffff" /><path
         d="m 129.1536,26.095793 h 0.71875 v 4.375 h -0.71875 z m 0,-1.703125 h 0.71875 v 0.910156 h -0.71875 z"
         id="path3439"
         style="fill:#ffffff" /><path
         d="m 134.78251,26.935637 q 0.26953,-0.484375 0.64453,-0.714844 0.375,-0.230469 0.88281,-0.230469 0.6836,0 1.05469,0.480469 0.37109,0.476562 0.37109,1.359375 v 2.640625 h -0.72265 v -2.617188 q 0,-0.628906 -0.22266,-0.933593 -0.22265,-0.304688 -0.67969,-0.304688 -0.55859,0 -0.88281,0.371094 -0.32422,0.371094 -0.32422,1.011719 v 2.472656 h -0.72265 v -2.617188 q 0,-0.632812 -0.22266,-0.933593 -0.22266,-0.304688 -0.6875,-0.304688 -0.55078,0 -0.875,0.375 -0.32422,0.371094 -0.32422,1.007813 v 2.472656 h -0.72265 v -4.375 h 0.72265 v 0.679687 q 0.2461,-0.402343 0.58985,-0.59375 0.34375,-0.191406 0.8164,-0.191406 0.47656,0 0.8086,0.242188 0.33593,0.242187 0.49609,0.703125 z"
         id="path3441"
         style="fill:#ffffff" /><path
         d="m 139.09501,28.74423 v -2.648437 h 0.71875 v 2.621094 q 0,0.621093 0.24219,0.933593 0.24218,0.308594 0.72656,0.308594 0.58203,0 0.91797,-0.371094 0.33984,-0.371093 0.33984,-1.011718 v -2.480469 h 0.71875 v 4.375 h -0.71875 v -0.671875 q -0.26172,0.398437 -0.60937,0.59375 -0.34375,0.191406 -0.80078,0.191406 -0.75391,0 -1.14454,-0.46875 -0.39062,-0.46875 -0.39062,-1.371094 z m 1.80859,-2.753906 z"
         id="path3443"
         style="fill:#ffffff" /><path
         d="m 147.87626,27.830168 v 2.640625 h -0.71875 v -2.617188 q 0,-0.621093 -0.24219,-0.929687 -0.24219,-0.308594 -0.72656,-0.308594 -0.58203,0 -0.91797,0.371094 -0.33594,0.371094 -0.33594,1.011719 v 2.472656 h -0.72265 v -4.375 h 0.72265 v 0.679687 q 0.25782,-0.394531 0.60547,-0.589843 0.35156,-0.195313 0.8086,-0.195313 0.7539,0 1.14062,0.46875 0.38672,0.464844 0.38672,1.371094 z"
         id="path3445"
         style="fill:#ffffff" /><path
         d="m 152.18876,26.759855 v -2.367187 h 0.71875 v 6.078125 h -0.71875 v -0.65625 q -0.22656,0.390625 -0.57422,0.582031 -0.34375,0.1875 -0.82812,0.1875 -0.79297,0 -1.29297,-0.632812 -0.4961,-0.632813 -0.4961,-1.664063 0,-1.03125 0.4961,-1.664062 0.5,-0.632813 1.29297,-0.632813 0.48437,0 0.82812,0.191406 0.34766,0.1875 0.57422,0.578125 z m -2.44922,1.527344 q 0,0.792969 0.32422,1.246094 0.32812,0.449219 0.89844,0.449219 0.57031,0 0.89843,-0.449219 0.32813,-0.453125 0.32813,-1.246094 0,-0.792969 -0.32813,-1.242187 -0.32812,-0.453125 -0.89843,-0.453125 -0.57032,0 -0.89844,0.453125 -0.32422,0.449218 -0.32422,1.242187 z"
         id="path3447"
         style="fill:#ffffff" /><path
         d="m 156.08329,26.599699 q -0.57812,0 -0.91406,0.453125 -0.33594,0.449219 -0.33594,1.234375 0,0.785156 0.33203,1.238281 0.33594,0.449219 0.91797,0.449219 0.57422,0 0.91016,-0.453125 0.33593,-0.453125 0.33593,-1.234375 0,-0.777344 -0.33593,-1.230469 -0.33594,-0.457031 -0.91016,-0.457031 z m 0,-0.609375 q 0.9375,0 1.47266,0.609375 0.53515,0.609375 0.53515,1.6875 0,1.074219 -0.53515,1.6875 -0.53516,0.609375 -1.47266,0.609375 -0.94141,0 -1.47656,-0.609375 -0.53125,-0.613281 -0.53125,-1.6875 0,-1.078125 0.53125,-1.6875 0.53515,-0.609375 1.47656,-0.609375 z"
         id="path3449"
         style="fill:#ffffff" /><path
         d="m 159.24345,29.478605 h 0.82422 v 0.992188 h -0.82422 z"
         id="path3451"
         style="fill:#ffffff" /><path
         d="m 161.78642,29.478605 h 0.82421 v 0.992188 h -0.82421 z"
         id="path3453"
         style="fill:#ffffff" /><path
         d="m 164.68095,29.478605 h 0.79297 v 0.992188 h -0.79297 z m 0,-4.839843 h 0.79297 v 2.558593 l -0.0781,1.394532 h -0.63281 l -0.082,-1.394532 z"
         id="path3455"
         style="fill:#ffffff" /></g></g></g></svg>
